<?xml version="1.0" encoding="UTF-8" standalone="no"?><!-- Generator: Gravit.io --><svg xmlns="http://www.w3.org/2000/svg" xmlns:xlink="http://www.w3.org/1999/xlink" style="isolation:isolate" viewBox="0 0 503 503" width="503pt" height="503pt"><defs><clipPath id="_clipPath_S3lxhFkuW0Oz3xiUOOgzWqWl3q2G7Hys"><rect width="503" height="503"/></clipPath></defs><g clip-path="url(#_clipPath_S3lxhFkuW0Oz3xiUOOgzWqWl3q2G7Hys)"><g><path d=" M 140.348 188.584 L 250.348 188.584 L 360.348 188.584 L 305.348 283.847 L 250.348 379.11 L 195.348 283.847 L 140.348 188.584 Z " fill="rgb(217,33,119)"/><path d=" M 360.348 188.584 L 251.469 188.584 L 142.59 188.584 L 197.029 94.292 L 251.469 0 L 305.908 94.292 L 360.348 188.584 Z " fill="rgb(248,61,148)"/><path d=" M 469.29 377.378 L 360.29 377.378 L 251.29 377.378 L 305.79 282.981 L 360.29 188.584 L 414.79 282.981 L 469.29 377.378 Z " fill="rgb(180,33,103)"/><path d=" M 251.71 377.169 L 142.71 377.169 L 33.71 377.169 L 88.21 282.772 L 142.71 188.375 L 197.21 282.772 L 251.71 377.169 Z " fill="rgb(224,57,135)"/><path d=" M 142.59 188.584 L 33.71 125.723 L 251.469 0 L 142.59 188.584 Z " fill="rgb(255,90,169)"/><path d=" M 33.71 125.723 L 33.71 377.169 L 142.59 188.584 L 33.71 125.723 Z " fill="rgb(248,61,148)"/><path d=" M 251.469 377.169 L 251.469 502.892 L 33.71 377.169 L 251.469 377.169 Z " fill="rgb(180,33,103)"/><path d=" M 360.348 188.584 L 469.227 125.723 L 469.227 377.169 L 360.348 188.584 Z " fill="rgb(157,2,75)"/><path d=" M 251.469 0 L 469.227 125.723 L 360.348 188.584 L 251.469 0 Z " fill="rgb(224,57,135)"/><path d=" M 251.469 377.169 L 251.469 502.892 L 469.227 377.169 L 251.469 377.169 Z " fill="rgb(157,2,75)"/></g></g></svg>